<svg id="Layer_1" xmlns="http://www.w3.org/2000/svg" xmlns:xlink="http://www.w3.org/1999/xlink" viewBox="0 0 400 400"><style>.st0{fill:#fff}.st1{clip-path:url(#SVGID_2_)}.st2{clip-path:url(#SVGID_4_);fill:#016ec5}.st3{fill:url(#SVGID_5_)}.st4{fill:url(#SVGID_6_)}.st5{fill:url(#SVGID_7_)}</style><path class="st0" d="M200.2 400.3c-110.5 0-200-89.5-200-200S89.7.3 200.2.3s200 89.5 200 200-89.6 200-200 200z"/><defs><path id="SVGID_1_" d="M200.1 12.3c-102.7 0-186 83.3-186 186 0 82.2 53.3 151.9 127.2 176.5 9.3 1.7 12.7-4 12.7-8.9 0-4.4-.2-19.1-.3-34.6-51.8 11.3-62.7-22-62.7-22-8.5-21.5-20.7-27.2-20.7-27.2-16.9-11.5 1.3-11.3 1.3-11.3 18.7 1.3 28.5 19.2 28.5 19.2 16.6 28.4 43.5 20.2 54.1 15.5 1.7-12 6.5-20.2 11.8-24.9-41.3-4.7-84.8-20.7-84.8-91.9 0-20.3 7.3-36.9 19.2-49.9-1.9-4.7-8.3-23.6 1.8-49.2 0 0 15.6-5 51.2 19.1 14.8-4.1 30.8-6.2 46.6-6.3 15.8.1 31.7 2.1 46.6 6.3 35.5-24.1 51.1-19.1 51.1-19.1 10.1 25.6 3.8 44.5 1.8 49.2 11.9 13 19.1 29.6 19.1 49.9 0 71.5-43.5 87.2-84.9 91.8 6.7 5.8 12.6 17.1 12.6 34.5 0 24.9-.2 44.9-.2 51.1 0 5 3.3 10.8 12.8 8.9C332.8 350.4 386 280.7 386 198.5c.2-102.9-83.1-186.2-185.9-186.2"/></defs><use xlink:href="#SVGID_1_" overflow="visible" fill-rule="evenodd" clip-rule="evenodd" fill="#016ec5"/><clipPath id="SVGID_2_"><use xlink:href="#SVGID_1_" overflow="visible"/></clipPath><g class="st1"><defs><path id="SVGID_3_" d="M14.1 11.7h372.8V377H14.1z"/></defs><use xlink:href="#SVGID_3_" overflow="visible" fill="#016ec5"/><clipPath id="SVGID_4_"><use xlink:href="#SVGID_3_" overflow="visible"/></clipPath><path class="st2" d="M1.7-.1h396.9v387.7H1.7z"/></g><g><linearGradient id="SVGID_5_" gradientUnits="userSpaceOnUse" x1="84.147" y1="286.237" x2="166.186" y2="286.237"><stop offset="0" stop-color="#003d7a"/><stop offset=".482" stop-color="#003d7a"/><stop offset="1" stop-color="#002b59"/></linearGradient><path class="st3" d="M100.2 290c16.6 28.4 43.5 20.2 54.1 15.5 1.7-12 6.5-20.2 11.8-24.9-19.3-2.2-39.1-6.9-54.7-18.5L84 274.4c10.7 5.6 16.2 15.6 16.2 15.6z"/><linearGradient id="SVGID_6_" gradientUnits="userSpaceOnUse" x1="233.872" y1="258.914" x2="386.175" y2="258.914"><stop offset="0" stop-color="#003d7a"/><stop offset=".482" stop-color="#003d7a"/><stop offset="1" stop-color="#002b59"/></linearGradient><path class="st4" d="M318.8 188.7c0 71.5-43.5 87.2-84.9 91.8 6.7 5.8 12.6 17.1 12.6 34.5 0 24.9-.2 44.9-.2 51.1 0 5 3.3 10.8 12.8 8.9 73.9-24.6 127.1-94.3 127.1-176.5 0-19.4-3-38.2-8.5-55.8L316.6 170c1.4 5.9 2.2 12.1 2.2 18.7z"/><linearGradient id="SVGID_7_" gradientUnits="userSpaceOnUse" x1="40.543" y1="328.2" x2="154.032" y2="328.2"><stop offset="0" stop-color="#003d7a"/><stop offset=".482" stop-color="#003d7a"/><stop offset="1" stop-color="#002b59"/></linearGradient><path class="st5" d="M141.3 374.9c9.3 1.7 12.7-4 12.7-8.9 0-4.4-.2-19.1-.3-34.6-51.8 11.3-62.7-22-62.7-22-8.5-21.5-20.7-27.2-20.7-27.2-.5-.3-.9-.6-1.3-1L40.5 294c22.7 37.7 58.4 66.8 100.8 80.9z"/></g></svg>